PathFileType	4	(X/Y/Z)	output.trc
DataRate	CameraRate	NumFrames	NumMarkers	Units	OrigDataRate	OrigDataStartFrame	OrigNumFrames
100	100	18	23	m	100	1767	4710
Frame#	Time	C7			T8			EL			EM			US			RS			AA			Fore_Clus_1			Fore_Clus_2			Fore_Clus_3			Fore_Clus_4			Hum_Clus_1			Hum_Clus_2			Hum_Clus_3			Hum_Clus_4			Thor_Clus_1			Thor_Clus_2			Thor_Clus_3			Thor_Clus_4			IJ			PX			GH			Thor_Clus_5		
		X1	Y1	Z1	X2	Y2	Z2	X3	Y3	Z3	X4	Y4	Z4	X5	Y5	Z5	X6	Y6	Z6	X7	Y7	Z7	X8	Y8	Z8	X9	Y9	Z9	X10	Y10	Z10	X11	Y11	Z11	X12	Y12	Z12	X13	Y13	Z13	X14	Y14	Z14	X15	Y15	Z15	X16	Y16	Z16	X17	Y17	Z17	X18	Y18	Z18	X19	Y19	Z19	X20	Y20	Z20	X21	Y21	Z21	X22	Y22	Z22	X23	Y23	Z23
1766	17.660000	-0.122844	1.418743	-0.151075	-0.149585	1.202150	-0.202578	-0.285046	1.124647	0.133469	-0.261447	1.081564	0.091950	-0.084607	1.076472	0.269495	-0.063472	1.048502	0.232127	-0.245268	1.342670	-0.025506	-0.104618	1.116255	0.232689	-0.061109	1.103387	0.263198	-0.049181	1.091155	0.241132	-0.086586	1.096035	0.196806	-0.259251	1.220710	0.120937	-0.305787	1.212952	0.083336	-0.302557	1.267387	0.050800	-0.251460	1.280044	0.077059	0.000066	1.309101	-0.035127	-0.035449	1.260050	0.023836	-0.037011	1.306829	-0.010087	0.017501	1.262576	-0.012958	-0.059087	1.334873	-0.074023	-0.029154	1.139338	-0.025692	-0.222849	1.311096	-0.054436	-0.043524	1.280423	0.013587
1767	17.670000	-0.122838	1.418749	-0.151176	-0.149576	1.202154	-0.202676	-0.285115	1.124958	0.133673	-0.261634	1.081786	0.092179	-0.084394	1.076425	0.269337	-0.063412	1.048369	0.231948	-0.245271	1.342678	-0.025614	-0.104411	1.116230	0.232561	-0.060905	1.103269	0.262997	-0.048983	1.091039	0.240900	-0.086516	1.095911	0.196631	-0.259239	1.221030	0.121046	-0.305784	1.213250	0.083419	-0.302514	1.267595	0.050848	-0.251373	1.280215	0.077070	0.000083	1.309133	-0.035184	-0.035456	1.260049	0.023770	-0.037013	1.306833	-0.010165	0.017497	1.262587	-0.013046	-0.059087	1.334880	-0.074118	-0.029158	1.139346	-0.025780	-0.222846	1.311075	-0.054538	-0.043533	1.280420	0.013484
1768	17.680000	-0.122840	1.418754	-0.151269	-0.149584	1.202159	-0.202765	-0.285174	1.125256	0.133874	-0.261807	1.081999	0.092406	-0.084188	1.076391	0.269199	-0.063346	1.048254	0.231791	-0.245273	1.342688	-0.025703	-0.104240	1.116199	0.232413	-0.060623	1.103183	0.262728	-0.048848	1.090780	0.240467	-0.086370	1.095825	0.196453	-0.259144	1.221291	0.121123	-0.305782	1.213512	0.083505	-0.302463	1.267800	0.050889	-0.251255	1.280387	0.077029	0.000088	1.309143	-0.035283	-0.035516	1.260153	0.023612	-0.037011	1.306867	-0.010259	0.017501	1.262600	-0.013126	-0.059090	1.334885	-0.074210	-0.029164	1.139352	-0.025870	-0.222837	1.311051	-0.054632	-0.043525	1.280437	0.013389
1769	17.690000	-0.122841	1.418770	-0.151350	-0.149602	1.202178	-0.202852	-0.285226	1.125541	0.134074	-0.261964	1.082202	0.092631	-0.083995	1.076363	0.269077	-0.063289	1.048147	0.231655	-0.245270	1.342708	-0.025779	-0.104062	1.116211	0.232287	-0.060427	1.103125	0.262533	-0.048679	1.090724	0.240269	-0.086312	1.095753	0.196304	-0.259073	1.221526	0.121194	-0.305756	1.213748	0.083634	-0.302411	1.268003	0.050963	-0.251154	1.280542	0.076999	0.000135	1.309176	-0.035325	-0.035514	1.260139	0.023537	-0.037002	1.306875	-0.010355	0.017503	1.262610	-0.013237	-0.059090	1.334894	-0.074299	-0.029174	1.139357	-0.025967	-0.222822	1.311025	-0.054717	-0.043512	1.280443	0.013302
1770	17.700000	-0.122845	1.418790	-0.151422	-0.149635	1.202204	-0.202932	-0.285271	1.125815	0.134271	-0.262107	1.082397	0.092856	-0.083812	1.076346	0.268974	-0.063234	1.048053	0.231539	-0.245263	1.342733	-0.025837	-0.103905	1.116231	0.232188	-0.060170	1.103116	0.262330	-0.048528	1.090634	0.240078	-0.086231	1.095714	0.196171	-0.259003	1.221737	0.121253	-0.305724	1.213995	0.083780	-0.302344	1.268207	0.051023	-0.251037	1.280709	0.076956	0.000135	1.309180	-0.035419	-0.035505	1.260146	0.023442	-0.036996	1.306875	-0.010456	0.017504	1.262602	-0.013380	-0.059092	1.334903	-0.074384	-0.029188	1.139361	-0.026069	-0.222801	1.310998	-0.054793	-0.043504	1.280449	0.013206
1771	17.710000	-0.122853	1.418816	-0.151483	-0.149682	1.202238	-0.203006	-0.285310	1.126078	0.134467	-0.262235	1.082585	0.093081	-0.083640	1.076339	0.268888	-0.063182	1.047971	0.231444	-0.245254	1.342763	-0.025878	-0.103732	1.116280	0.232108	-0.059963	1.103088	0.262173	-0.048427	1.090582	0.239944	-0.086153	1.095678	0.196069	-0.258960	1.221928	0.121321	-0.305698	1.214216	0.083911	-0.302279	1.268385	0.051081	-0.250935	1.280849	0.076940	0.000171	1.309191	-0.035488	-0.035502	1.260141	0.023350	-0.036994	1.306870	-0.010547	0.017509	1.262600	-0.013473	-0.059094	1.334915	-0.074467	-0.029204	1.139364	-0.026174	-0.222775	1.310969	-0.054861	-0.043479	1.280438	0.013106
1772	17.720000	-0.122860	1.418853	-0.151534	-0.149737	1.202286	-0.203079	-0.285345	1.126332	0.134660	-0.262351	1.082766	0.093306	-0.083482	1.076338	0.268816	-0.063142	1.047894	0.231365	-0.245240	1.342803	-0.025907	-0.103558	1.116310	0.232033	-0.059758	1.103090	0.262028	-0.048279	1.090514	0.239790	-0.086070	1.095639	0.195961	-0.258901	1.222125	0.121386	-0.305666	1.214447	0.084032	-0.302208	1.268578	0.051125	-0.250840	1.281033	0.076928	0.000211	1.309229	-0.035560	-0.035467	1.260132	0.023249	-0.036974	1.306862	-0.010657	0.017514	1.262591	-0.013581	-0.059094	1.334931	-0.074546	-0.029222	1.139369	-0.026288	-0.222744	1.310940	-0.054921	-0.043463	1.280439	0.013028
1773	17.730000	-0.122875	1.418892	-0.151577	-0.149805	1.202337	-0.203144	-0.285377	1.126578	0.134853	-0.262454	1.082942	0.093533	-0.083334	1.076346	0.268757	-0.063102	1.047830	0.231302	-0.245225	1.342844	-0.025919	-0.103404	1.116322	0.231960	-0.059600	1.103050	0.261936	-0.048153	1.090463	0.239677	-0.086012	1.095587	0.195897	-0.258858	1.222323	0.121427	-0.305647	1.214641	0.084146	-0.302159	1.268727	0.051180	-0.250744	1.281168	0.076930	0.000266	1.309256	-0.035661	-0.035491	1.260119	0.023165	-0.036978	1.306857	-0.010744	0.017532	1.262596	-0.013693	-0.059096	1.334948	-0.074622	-0.029241	1.139375	-0.026401	-0.222710	1.310910	-0.054975	-0.043421	1.280404	0.012941
1774	17.740000	-0.122888	1.418941	-0.151611	-0.149877	1.202400	-0.203209	-0.285408	1.126818	0.135045	-0.262549	1.083114	0.093760	-0.083198	1.076357	0.268706	-0.063075	1.047767	0.231249	-0.245207	1.342892	-0.025924	-0.103251	1.116335	0.231891	-0.059416	1.103037	0.261815	-0.048041	1.090365	0.239567	-0.085932	1.095539	0.195826	-0.258770	1.222538	0.121483	-0.305637	1.214878	0.084243	-0.302089	1.268918	0.051228	-0.250675	1.281326	0.076975	0.000020	1.309114	-0.035887	-0.035529	1.260085	0.023061	-0.036968	1.306857	-0.010846	0.017535	1.262590	-0.013810	-0.059098	1.334971	-0.074694	-0.029261	1.139383	-0.026521	-0.222674	1.310880	-0.055023	-0.043404	1.280418	0.012850
1775	17.750000	-0.122906	1.418993	-0.151639	-0.149953	1.202468	-0.203270	-0.285441	1.127054	0.135236	-0.262638	1.083285	0.093990	-0.083072	1.076372	0.268662	-0.063054	1.047710	0.231203	-0.245189	1.342941	-0.025920	-0.103078	1.116335	0.231830	-0.059253	1.102971	0.261720	-0.047917	1.090269	0.239450	-0.085894	1.095438	0.195760	-0.258732	1.222746	0.121559	-0.305636	1.215088	0.084333	-0.302041	1.269066	0.051269	-0.250603	1.281453	0.076961	-0.000407	1.308893	-0.036247	-0.035519	1.260079	0.022980	-0.036896	1.306921	-0.010881	0.017553	1.262597	-0.013917	-0.059100	1.334997	-0.074765	-0.029280	1.139394	-0.026643	-0.222639	1.310849	-0.055068	-0.043387	1.280406	0.012775
1776	17.760000	-0.122927	1.419048	-0.151663	-0.150031	1.202538	-0.203329	-0.285477	1.127288	0.135428	-0.262724	1.083455	0.094223	-0.082954	1.076390	0.268620	-0.063037	1.047658	0.231161	-0.245172	1.342989	-0.025910	-0.102937	1.116331	0.231771	-0.059067	1.102894	0.261579	-0.047795	1.090177	0.239338	-0.085830	1.095359	0.195691	-0.258672	1.222956	0.121632	-0.305611	1.215279	0.084415	-0.301989	1.269223	0.051291	-0.250539	1.281616	0.076957	-0.000363	1.308929	-0.036302	-0.035501	1.260086	0.022889	-0.036842	1.306977	-0.010925	0.017568	1.262612	-0.014031	-0.059104	1.335025	-0.074832	-0.029295	1.139407	-0.026764	-0.222604	1.310817	-0.055109	-0.043363	1.280401	0.012693
1777	17.770000	-0.122948	1.419109	-0.151683	-0.150103	1.202616	-0.203390	-0.285518	1.127523	0.135620	-0.262810	1.083625	0.094459	-0.082845	1.076404	0.268577	-0.063032	1.047602	0.231118	-0.245154	1.343038	-0.025901	-0.102786	1.116338	0.231721	-0.058932	1.102819	0.261467	-0.047741	1.090050	0.239213	-0.085810	1.095271	0.195623	-0.258651	1.223135	0.121701	-0.305588	1.215456	0.084514	-0.301956	1.269374	0.051326	-0.250483	1.281746	0.076968	-0.000337	1.308930	-0.036425	-0.035484	1.260072	0.022803	-0.036828	1.306963	-0.011030	0.017592	1.262626	-0.014145	-0.059107	1.335059	-0.074897	-0.029308	1.139424	-0.026888	-0.222572	1.310786	-0.055149	-0.043350	1.280410	0.012609
1778	17.780000	-0.122976	1.419166	-0.151702	-0.150173	1.202687	-0.203446	-0.285566	1.127760	0.135814	-0.262901	1.083798	0.094698	-0.082739	1.076420	0.268532	-0.063026	1.047551	0.231071	-0.245140	1.343079	-0.025888	-0.102683	1.116324	0.231674	-0.058783	1.102780	0.261383	-0.047657	1.089964	0.239140	-0.085759	1.095249	0.195581	-0.258619	1.223335	0.121772	-0.305568	1.215661	0.084608	-0.301929	1.269540	0.051345	-0.250430	1.281938	0.076968	-0.000244	1.308972	-0.036457	-0.035443	1.260086	0.022691	-0.036791	1.306990	-0.011124	0.017617	1.262643	-0.014252	-0.059113	1.335092	-0.074960	-0.029315	1.139444	-0.027006	-0.222545	1.310754	-0.055189	-0.043310	1.280418	0.012519
1779	17.790000	-0.123003	1.419226	-0.151720	-0.150234	1.202761	-0.203506	-0.285622	1.128002	0.136010	-0.262998	1.083975	0.094942	-0.082641	1.076432	0.268482	-0.063031	1.047496	0.231017	-0.245128	1.343117	-0.025881	-0.102564	1.116325	0.231660	-0.058669	1.102710	0.261310	-0.047587	1.089887	0.239040	-0.085762	1.095152	0.195541	-0.258614	1.223520	0.121824	-0.305557	1.215834	0.084721	-0.301939	1.269732	0.051380	-0.250386	1.282071	0.076971	0.000496	1.309404	-0.036128	-0.035415	1.260087	0.022609	-0.036732	1.306983	-0.011168	0.017638	1.262688	-0.014355	-0.059119	1.335129	-0.075021	-0.029317	1.139468	-0.027124	-0.222522	1.310722	-0.055229	-0.043307	1.280427	0.012429
1780	17.800000	-0.123035	1.419281	-0.151741	-0.150286	1.202827	-0.203565	-0.285687	1.128250	0.136210	-0.263105	1.084156	0.095189	-0.082546	1.076441	0.268424	-0.063038	1.047443	0.230955	-0.245120	1.343147	-0.025878	-0.102467	1.116329	0.231584	-0.058527	1.102667	0.261218	-0.047505	1.089743	0.238941	-0.085700	1.095086	0.195463	-0.258572	1.223708	0.121875	-0.305560	1.216030	0.084841	-0.301909	1.269883	0.051422	-0.250339	1.282199	0.076975	-0.000033	1.308897	-0.036714	-0.035386	1.260114	0.022525	-0.036716	1.307023	-0.011263	0.017669	1.262714	-0.014455	-0.059127	1.335166	-0.075081	-0.029313	1.139494	-0.027235	-0.222505	1.310689	-0.055270	-0.043285	1.280544	0.012416
1781	17.810000	-0.123070	1.419329	-0.151765	-0.150329	1.202884	-0.203622	-0.285761	1.128506	0.136413	-0.263225	1.084343	0.095441	-0.082453	1.076448	0.268361	-0.063048	1.047390	0.230884	-0.245115	1.343168	-0.025881	-0.102333	1.116330	0.231543	-0.058416	1.102576	0.261071	-0.047388	1.089694	0.238910	-0.085704	1.095000	0.195407	-0.258611	1.223929	0.122004	-0.305572	1.216232	0.084947	-0.301886	1.270030	0.051453	-0.250313	1.282332	0.076985	0.002613	1.311778	-0.034099	-0.035369	1.260123	0.022449	-0.036711	1.307025	-0.011350	0.017673	1.262747	-0.014551	-0.059136	1.335202	-0.075140	-0.029302	1.139522	-0.027340	-0.222494	1.310656	-0.055314	-0.043263	1.280619	0.012384
1782	17.820000	-0.123103	1.419374	-0.151794	-0.150358	1.202937	-0.203682	-0.285843	1.128769	0.136620	-0.263359	1.084536	0.095696	-0.082364	1.076450	0.268290	-0.063067	1.047334	0.230804	-0.245114	1.343182	-0.025895	-0.102211	1.116348	0.231467	-0.058239	1.102546	0.260912	-0.047307	1.089622	0.238775	-0.085680	1.094970	0.195330	-0.258616	1.224189	0.122080	-0.305600	1.216454	0.085036	-0.301876	1.270213	0.051513	-0.250273	1.282477	0.076984	0.000341	1.309325	-0.036524	-0.035346	1.260148	0.022367	-0.036684	1.307066	-0.011444	0.017679	1.262769	-0.014650	-0.059146	1.335238	-0.075198	-0.029286	1.139552	-0.027439	-0.222489	1.310623	-0.055359	-0.043251	1.280629	0.012312
1783	17.830000	-0.123143	1.419406	-0.151828	-0.150381	1.202971	-0.203737	-0.285935	1.129042	0.136831	-0.263508	1.084735	0.095955	-0.082276	1.076453	0.268214	-0.063083	1.047283	0.230716	-0.245117	1.343183	-0.025913	-0.102134	1.116378	0.231401	-0.058126	1.102476	0.260774	-0.047229	1.089577	0.238635	-0.085683	1.094902	0.195270	-0.258673	1.224428	0.122159	-0.305662	1.216551	0.085254	-0.301864	1.270399	0.051537	-0.250250	1.282626	0.076995	0.003119	1.312343	-0.033739	-0.035344	1.260150	0.022291	-0.036716	1.307063	-0.011544	0.017684	1.262793	-0.014734	-0.059159	1.335270	-0.075256	-0.029264	1.139581	-0.027527	-0.222491	1.310590	-0.055406	-0.043231	1.280653	0.012250
